<mxfile host="app.diagrams.net" modified="2024-04-24T17:31:34.843Z" agent="Mozilla/5.0 (Windows NT 10.0; Win64; x64; rv:125.0) Gecko/20100101 Firefox/125.0" etag="2KON_jmZor8AD3ENscEp" version="24.2.8" type="github">
  <diagram id="C5RBs43oDa-KdzZeNtuy" name="Page-1">
    <mxGraphModel dx="2074" dy="1152" grid="1" gridSize="10" guides="1" tooltips="1" connect="1" arrows="1" fold="1" page="1" pageScale="1" pageWidth="827" pageHeight="1169" math="0" shadow="0">
      <root>
        <mxCell id="WIyWlLk6GJQsqaUBKTNV-0" />
        <mxCell id="WIyWlLk6GJQsqaUBKTNV-1" parent="WIyWlLk6GJQsqaUBKTNV-0" />
        <mxCell id="KxtjibDI0x8qdvbCjvkH-0" value="Usuario" style="swimlane;fontStyle=1;align=center;verticalAlign=top;childLayout=stackLayout;horizontal=1;startSize=26;horizontalStack=0;resizeParent=1;resizeParentMax=0;resizeLast=0;collapsible=1;marginBottom=0;whiteSpace=wrap;html=1;" vertex="1" parent="WIyWlLk6GJQsqaUBKTNV-1">
          <mxGeometry x="220" y="40" width="220" height="130" as="geometry" />
        </mxCell>
        <mxCell id="KxtjibDI0x8qdvbCjvkH-1" value="&lt;div&gt;+ Nombre: string&lt;/div&gt;&lt;div&gt;# listaProductos: List&amp;lt;Producto&amp;gt;&lt;br&gt;&lt;/div&gt;" style="text;strokeColor=none;fillColor=none;align=left;verticalAlign=top;spacingLeft=4;spacingRight=4;overflow=hidden;rotatable=0;points=[[0,0.5],[1,0.5]];portConstraint=eastwest;whiteSpace=wrap;html=1;" vertex="1" parent="KxtjibDI0x8qdvbCjvkH-0">
          <mxGeometry y="26" width="220" height="44" as="geometry" />
        </mxCell>
        <mxCell id="KxtjibDI0x8qdvbCjvkH-2" value="" style="line;strokeWidth=1;fillColor=none;align=left;verticalAlign=middle;spacingTop=-1;spacingLeft=3;spacingRight=3;rotatable=0;labelPosition=right;points=[];portConstraint=eastwest;strokeColor=inherit;" vertex="1" parent="KxtjibDI0x8qdvbCjvkH-0">
          <mxGeometry y="70" width="220" height="8" as="geometry" />
        </mxCell>
        <mxCell id="KxtjibDI0x8qdvbCjvkH-3" value="&lt;div&gt;+abstract ComprarProductos(): void&lt;/div&gt;+abstract MostrarInformacion(): void" style="text;strokeColor=none;fillColor=none;align=left;verticalAlign=top;spacingLeft=4;spacingRight=4;overflow=hidden;rotatable=0;points=[[0,0.5],[1,0.5]];portConstraint=eastwest;whiteSpace=wrap;html=1;" vertex="1" parent="KxtjibDI0x8qdvbCjvkH-0">
          <mxGeometry y="78" width="220" height="52" as="geometry" />
        </mxCell>
        <mxCell id="KxtjibDI0x8qdvbCjvkH-4" value="MaquinaVending" style="swimlane;fontStyle=1;align=center;verticalAlign=top;childLayout=stackLayout;horizontal=1;startSize=26;horizontalStack=0;resizeParent=1;resizeParentMax=0;resizeLast=0;collapsible=1;marginBottom=0;whiteSpace=wrap;html=1;" vertex="1" parent="WIyWlLk6GJQsqaUBKTNV-1">
          <mxGeometry x="710" y="40" width="220" height="170" as="geometry" />
        </mxCell>
        <mxCell id="KxtjibDI0x8qdvbCjvkH-5" value="&lt;div&gt;- CONTRASEÑA: string&lt;/div&gt;&lt;div&gt;+ listaProductos: List&amp;lt;Producto&amp;gt;&lt;br&gt;&lt;/div&gt;" style="text;strokeColor=none;fillColor=none;align=left;verticalAlign=top;spacingLeft=4;spacingRight=4;overflow=hidden;rotatable=0;points=[[0,0.5],[1,0.5]];portConstraint=eastwest;whiteSpace=wrap;html=1;" vertex="1" parent="KxtjibDI0x8qdvbCjvkH-4">
          <mxGeometry y="26" width="220" height="44" as="geometry" />
        </mxCell>
        <mxCell id="KxtjibDI0x8qdvbCjvkH-6" value="" style="line;strokeWidth=1;fillColor=none;align=left;verticalAlign=middle;spacingTop=-1;spacingLeft=3;spacingRight=3;rotatable=0;labelPosition=right;points=[];portConstraint=eastwest;strokeColor=inherit;" vertex="1" parent="KxtjibDI0x8qdvbCjvkH-4">
          <mxGeometry y="70" width="220" height="8" as="geometry" />
        </mxCell>
        <mxCell id="KxtjibDI0x8qdvbCjvkH-7" value="&lt;div&gt;+ ComprarProducto(): void&lt;/div&gt;&lt;div&gt;+ MostrarInformacionProducto(): void&lt;/div&gt;&lt;div&gt;+ CargaIndividualProducto(): void&lt;/div&gt;&lt;div&gt;+ CargaCOmpletaProducto(): void&lt;/div&gt;&lt;div&gt;+ CargarContenidosdeArchivo(): bool&lt;br&gt;&lt;/div&gt;" style="text;strokeColor=none;fillColor=none;align=left;verticalAlign=top;spacingLeft=4;spacingRight=4;overflow=hidden;rotatable=0;points=[[0,0.5],[1,0.5]];portConstraint=eastwest;whiteSpace=wrap;html=1;" vertex="1" parent="KxtjibDI0x8qdvbCjvkH-4">
          <mxGeometry y="78" width="220" height="92" as="geometry" />
        </mxCell>
        <mxCell id="KxtjibDI0x8qdvbCjvkH-8" value="Producto" style="swimlane;fontStyle=1;align=center;verticalAlign=top;childLayout=stackLayout;horizontal=1;startSize=26;horizontalStack=0;resizeParent=1;resizeParentMax=0;resizeLast=0;collapsible=1;marginBottom=0;whiteSpace=wrap;html=1;" vertex="1" parent="WIyWlLk6GJQsqaUBKTNV-1">
          <mxGeometry x="1130" y="40" width="260" height="200" as="geometry" />
        </mxCell>
        <mxCell id="KxtjibDI0x8qdvbCjvkH-9" value="+ ID: int&lt;br&gt;+ Nombre: string&lt;br&gt;+Unidades: int&lt;br&gt;+PrecioUnidad: double&lt;br&gt;+Descripcion: string" style="text;strokeColor=none;fillColor=none;align=left;verticalAlign=top;spacingLeft=4;spacingRight=4;overflow=hidden;rotatable=0;points=[[0,0.5],[1,0.5]];portConstraint=eastwest;whiteSpace=wrap;html=1;" vertex="1" parent="KxtjibDI0x8qdvbCjvkH-8">
          <mxGeometry y="26" width="260" height="94" as="geometry" />
        </mxCell>
        <mxCell id="KxtjibDI0x8qdvbCjvkH-10" value="" style="line;strokeWidth=1;fillColor=none;align=left;verticalAlign=middle;spacingTop=-1;spacingLeft=3;spacingRight=3;rotatable=0;labelPosition=right;points=[];portConstraint=eastwest;strokeColor=inherit;" vertex="1" parent="KxtjibDI0x8qdvbCjvkH-8">
          <mxGeometry y="120" width="260" height="8" as="geometry" />
        </mxCell>
        <mxCell id="KxtjibDI0x8qdvbCjvkH-11" value="+ abstract MostrarInformacion(): string&lt;br&gt;+ asbtract SolicitarDetalles(): void&lt;br&gt;+ abstract ToFile(); void&lt;br&gt;+ virtual AñadirExistencias(int cantidad): void" style="text;strokeColor=none;fillColor=none;align=left;verticalAlign=top;spacingLeft=4;spacingRight=4;overflow=hidden;rotatable=0;points=[[0,0.5],[1,0.5]];portConstraint=eastwest;whiteSpace=wrap;html=1;" vertex="1" parent="KxtjibDI0x8qdvbCjvkH-8">
          <mxGeometry y="128" width="260" height="72" as="geometry" />
        </mxCell>
        <mxCell id="KxtjibDI0x8qdvbCjvkH-16" value="Cliente" style="swimlane;fontStyle=0;childLayout=stackLayout;horizontal=1;startSize=26;fillColor=none;horizontalStack=0;resizeParent=1;resizeParentMax=0;resizeLast=0;collapsible=1;marginBottom=0;whiteSpace=wrap;html=1;" vertex="1" parent="WIyWlLk6GJQsqaUBKTNV-1">
          <mxGeometry x="10" y="280" width="260" height="108" as="geometry" />
        </mxCell>
        <mxCell id="KxtjibDI0x8qdvbCjvkH-17" value="+ComprarProductos(): override void" style="text;strokeColor=none;fillColor=none;align=left;verticalAlign=top;spacingLeft=4;spacingRight=4;overflow=hidden;rotatable=0;points=[[0,0.5],[1,0.5]];portConstraint=eastwest;whiteSpace=wrap;html=1;" vertex="1" parent="KxtjibDI0x8qdvbCjvkH-16">
          <mxGeometry y="26" width="260" height="34" as="geometry" />
        </mxCell>
        <mxCell id="KxtjibDI0x8qdvbCjvkH-18" value="+MostrarInformacionProducto(): override void" style="text;strokeColor=none;fillColor=none;align=left;verticalAlign=top;spacingLeft=4;spacingRight=4;overflow=hidden;rotatable=0;points=[[0,0.5],[1,0.5]];portConstraint=eastwest;whiteSpace=wrap;html=1;" vertex="1" parent="KxtjibDI0x8qdvbCjvkH-16">
          <mxGeometry y="60" width="260" height="48" as="geometry" />
        </mxCell>
        <mxCell id="KxtjibDI0x8qdvbCjvkH-24" value="Admin" style="swimlane;fontStyle=1;align=center;verticalAlign=top;childLayout=stackLayout;horizontal=1;startSize=26;horizontalStack=0;resizeParent=1;resizeParentMax=0;resizeLast=0;collapsible=1;marginBottom=0;whiteSpace=wrap;html=1;" vertex="1" parent="WIyWlLk6GJQsqaUBKTNV-1">
          <mxGeometry x="404" y="280" width="320" height="230" as="geometry" />
        </mxCell>
        <mxCell id="KxtjibDI0x8qdvbCjvkH-25" value="+ Pin: string" style="text;strokeColor=none;fillColor=none;align=left;verticalAlign=top;spacingLeft=4;spacingRight=4;overflow=hidden;rotatable=0;points=[[0,0.5],[1,0.5]];portConstraint=eastwest;whiteSpace=wrap;html=1;" vertex="1" parent="KxtjibDI0x8qdvbCjvkH-24">
          <mxGeometry y="26" width="320" height="26" as="geometry" />
        </mxCell>
        <mxCell id="KxtjibDI0x8qdvbCjvkH-26" value="" style="line;strokeWidth=1;fillColor=none;align=left;verticalAlign=middle;spacingTop=-1;spacingLeft=3;spacingRight=3;rotatable=0;labelPosition=right;points=[];portConstraint=eastwest;strokeColor=inherit;" vertex="1" parent="KxtjibDI0x8qdvbCjvkH-24">
          <mxGeometry y="52" width="320" height="8" as="geometry" />
        </mxCell>
        <mxCell id="KxtjibDI0x8qdvbCjvkH-27" value="&lt;div align=&quot;left&quot;&gt;+ Login(): bool&lt;/div&gt;&lt;div align=&quot;left&quot;&gt;+ EliminarProductoConClave. void&lt;/div&gt;&lt;div align=&quot;left&quot;&gt;+ Menu(): void&lt;/div&gt;&lt;div align=&quot;left&quot;&gt;+Salir(): void&lt;/div&gt;&lt;div align=&quot;left&quot;&gt;+Carga Completa(): bool&lt;/div&gt;&lt;div align=&quot;left&quot;&gt;+ObtenerNuevoID(): int&lt;/div&gt;&lt;div align=&quot;left&quot;&gt;+AddProducto(): void&lt;/div&gt;&lt;div align=&quot;left&quot;&gt;+AñadirExistencias(List&amp;lt;Producto&amp;gt; listaProductos: void)&lt;/div&gt;&lt;div align=&quot;left&quot;&gt;+ BuscarProductos(int id)&lt;/div&gt;&lt;div align=&quot;left&quot;&gt;+EliminarProducto(Producto p): void&lt;/div&gt;+MostrarInformacionproducto(): override void" style="text;strokeColor=none;fillColor=none;align=left;verticalAlign=top;spacingLeft=4;spacingRight=4;overflow=hidden;rotatable=0;points=[[0,0.5],[1,0.5]];portConstraint=eastwest;whiteSpace=wrap;html=1;" vertex="1" parent="KxtjibDI0x8qdvbCjvkH-24">
          <mxGeometry y="60" width="320" height="170" as="geometry" />
        </mxCell>
        <mxCell id="KxtjibDI0x8qdvbCjvkH-29" value="name" style="endArrow=block;endFill=1;html=1;edgeStyle=orthogonalEdgeStyle;align=left;verticalAlign=top;rounded=0;exitX=0.5;exitY=0;exitDx=0;exitDy=0;" edge="1" parent="WIyWlLk6GJQsqaUBKTNV-1" source="KxtjibDI0x8qdvbCjvkH-16">
          <mxGeometry x="-1" relative="1" as="geometry">
            <mxPoint x="60" y="120" as="sourcePoint" />
            <mxPoint x="220" y="120" as="targetPoint" />
            <Array as="points">
              <mxPoint x="140" y="120" />
            </Array>
          </mxGeometry>
        </mxCell>
        <mxCell id="KxtjibDI0x8qdvbCjvkH-30" value="1" style="edgeLabel;resizable=0;html=1;align=left;verticalAlign=bottom;" connectable="0" vertex="1" parent="KxtjibDI0x8qdvbCjvkH-29">
          <mxGeometry x="-1" relative="1" as="geometry" />
        </mxCell>
        <mxCell id="KxtjibDI0x8qdvbCjvkH-31" value="name" style="endArrow=block;endFill=1;html=1;edgeStyle=orthogonalEdgeStyle;align=left;verticalAlign=top;rounded=0;exitX=0.5;exitY=0;exitDx=0;exitDy=0;entryX=1;entryY=1.068;entryDx=0;entryDy=0;entryPerimeter=0;" edge="1" parent="WIyWlLk6GJQsqaUBKTNV-1" source="KxtjibDI0x8qdvbCjvkH-24" target="KxtjibDI0x8qdvbCjvkH-1">
          <mxGeometry x="-1" relative="1" as="geometry">
            <mxPoint x="560" y="259" as="sourcePoint" />
            <mxPoint x="720" y="259" as="targetPoint" />
          </mxGeometry>
        </mxCell>
        <mxCell id="KxtjibDI0x8qdvbCjvkH-32" value="1" style="edgeLabel;resizable=0;html=1;align=left;verticalAlign=bottom;" connectable="0" vertex="1" parent="KxtjibDI0x8qdvbCjvkH-31">
          <mxGeometry x="-1" relative="1" as="geometry" />
        </mxCell>
        <mxCell id="KxtjibDI0x8qdvbCjvkH-33" value="MaterialesPreciosos" style="swimlane;fontStyle=1;align=center;verticalAlign=top;childLayout=stackLayout;horizontal=1;startSize=26;horizontalStack=0;resizeParent=1;resizeParentMax=0;resizeLast=0;collapsible=1;marginBottom=0;whiteSpace=wrap;html=1;" vertex="1" parent="WIyWlLk6GJQsqaUBKTNV-1">
          <mxGeometry x="820" y="330" width="160" height="170" as="geometry" />
        </mxCell>
        <mxCell id="KxtjibDI0x8qdvbCjvkH-34" value="&lt;div&gt;+ TipoMaterial: string&lt;/div&gt;+ Peso: double" style="text;strokeColor=none;fillColor=none;align=left;verticalAlign=top;spacingLeft=4;spacingRight=4;overflow=hidden;rotatable=0;points=[[0,0.5],[1,0.5]];portConstraint=eastwest;whiteSpace=wrap;html=1;" vertex="1" parent="KxtjibDI0x8qdvbCjvkH-33">
          <mxGeometry y="26" width="160" height="44" as="geometry" />
        </mxCell>
        <mxCell id="KxtjibDI0x8qdvbCjvkH-35" value="" style="line;strokeWidth=1;fillColor=none;align=left;verticalAlign=middle;spacingTop=-1;spacingLeft=3;spacingRight=3;rotatable=0;labelPosition=right;points=[];portConstraint=eastwest;strokeColor=inherit;" vertex="1" parent="KxtjibDI0x8qdvbCjvkH-33">
          <mxGeometry y="70" width="160" height="8" as="geometry" />
        </mxCell>
        <mxCell id="KxtjibDI0x8qdvbCjvkH-36" value="&lt;div align=&quot;left&quot;&gt;+MostrarInformacion(): override string&lt;/div&gt;&lt;div align=&quot;left&quot;&gt;+SolicitarDetalles(): override void&lt;/div&gt;+ToFile(): override void" style="text;strokeColor=none;fillColor=none;align=left;verticalAlign=top;spacingLeft=4;spacingRight=4;overflow=hidden;rotatable=0;points=[[0,0.5],[1,0.5]];portConstraint=eastwest;whiteSpace=wrap;html=1;" vertex="1" parent="KxtjibDI0x8qdvbCjvkH-33">
          <mxGeometry y="78" width="160" height="92" as="geometry" />
        </mxCell>
        <mxCell id="KxtjibDI0x8qdvbCjvkH-37" value="ProductosAlimenticio" style="swimlane;fontStyle=1;align=center;verticalAlign=top;childLayout=stackLayout;horizontal=1;startSize=26;horizontalStack=0;resizeParent=1;resizeParentMax=0;resizeLast=0;collapsible=1;marginBottom=0;whiteSpace=wrap;html=1;" vertex="1" parent="WIyWlLk6GJQsqaUBKTNV-1">
          <mxGeometry x="1070" y="340" width="200" height="150" as="geometry" />
        </mxCell>
        <mxCell id="KxtjibDI0x8qdvbCjvkH-38" value="&lt;div&gt;+ InformacionNutricional: string&lt;/div&gt;" style="text;strokeColor=none;fillColor=none;align=left;verticalAlign=top;spacingLeft=4;spacingRight=4;overflow=hidden;rotatable=0;points=[[0,0.5],[1,0.5]];portConstraint=eastwest;whiteSpace=wrap;html=1;" vertex="1" parent="KxtjibDI0x8qdvbCjvkH-37">
          <mxGeometry y="26" width="200" height="26" as="geometry" />
        </mxCell>
        <mxCell id="KxtjibDI0x8qdvbCjvkH-39" value="" style="line;strokeWidth=1;fillColor=none;align=left;verticalAlign=middle;spacingTop=-1;spacingLeft=3;spacingRight=3;rotatable=0;labelPosition=right;points=[];portConstraint=eastwest;strokeColor=inherit;" vertex="1" parent="KxtjibDI0x8qdvbCjvkH-37">
          <mxGeometry y="52" width="200" height="8" as="geometry" />
        </mxCell>
        <mxCell id="KxtjibDI0x8qdvbCjvkH-40" value="&lt;br&gt;&lt;div align=&quot;left&quot;&gt;+MostrarInformacion(): override string&lt;/div&gt;&lt;div align=&quot;left&quot;&gt;+SolicitarDetalles(): override void&lt;/div&gt;&lt;div align=&quot;left&quot;&gt;+ToFile(): override void&lt;/div&gt;" style="text;strokeColor=none;fillColor=none;align=left;verticalAlign=top;spacingLeft=4;spacingRight=4;overflow=hidden;rotatable=0;points=[[0,0.5],[1,0.5]];portConstraint=eastwest;whiteSpace=wrap;html=1;" vertex="1" parent="KxtjibDI0x8qdvbCjvkH-37">
          <mxGeometry y="60" width="200" height="90" as="geometry" />
        </mxCell>
        <mxCell id="KxtjibDI0x8qdvbCjvkH-41" value="ProductosElectricos" style="swimlane;fontStyle=1;align=center;verticalAlign=top;childLayout=stackLayout;horizontal=1;startSize=26;horizontalStack=0;resizeParent=1;resizeParentMax=0;resizeLast=0;collapsible=1;marginBottom=0;whiteSpace=wrap;html=1;" vertex="1" parent="WIyWlLk6GJQsqaUBKTNV-1">
          <mxGeometry x="1390" y="330" width="220" height="200" as="geometry" />
        </mxCell>
        <mxCell id="KxtjibDI0x8qdvbCjvkH-42" value="&lt;div&gt;+ TipoMaterial: string&lt;/div&gt;&lt;div&gt;+ Pilas: bool&lt;/div&gt;+ Recargado: bool" style="text;strokeColor=none;fillColor=none;align=left;verticalAlign=top;spacingLeft=4;spacingRight=4;overflow=hidden;rotatable=0;points=[[0,0.5],[1,0.5]];portConstraint=eastwest;whiteSpace=wrap;html=1;" vertex="1" parent="KxtjibDI0x8qdvbCjvkH-41">
          <mxGeometry y="26" width="220" height="54" as="geometry" />
        </mxCell>
        <mxCell id="KxtjibDI0x8qdvbCjvkH-43" value="" style="line;strokeWidth=1;fillColor=none;align=left;verticalAlign=middle;spacingTop=-1;spacingLeft=3;spacingRight=3;rotatable=0;labelPosition=right;points=[];portConstraint=eastwest;strokeColor=inherit;" vertex="1" parent="KxtjibDI0x8qdvbCjvkH-41">
          <mxGeometry y="80" width="220" height="8" as="geometry" />
        </mxCell>
        <mxCell id="KxtjibDI0x8qdvbCjvkH-44" value="&lt;br&gt;&lt;br&gt;&lt;div align=&quot;left&quot;&gt;+MostrarInformacion(): override string&lt;/div&gt;&lt;div align=&quot;left&quot;&gt;+SolicitarDetalles(): override void&lt;/div&gt;&lt;div align=&quot;left&quot;&gt;+ToFile(): override void&lt;/div&gt;" style="text;strokeColor=none;fillColor=none;align=left;verticalAlign=top;spacingLeft=4;spacingRight=4;overflow=hidden;rotatable=0;points=[[0,0.5],[1,0.5]];portConstraint=eastwest;whiteSpace=wrap;html=1;" vertex="1" parent="KxtjibDI0x8qdvbCjvkH-41">
          <mxGeometry y="88" width="220" height="112" as="geometry" />
        </mxCell>
        <mxCell id="KxtjibDI0x8qdvbCjvkH-45" value="" style="endArrow=block;endFill=1;html=1;edgeStyle=orthogonalEdgeStyle;align=left;verticalAlign=top;rounded=0;exitX=0.438;exitY=-0.012;exitDx=0;exitDy=0;exitPerimeter=0;entryX=-0.004;entryY=-0.043;entryDx=0;entryDy=0;entryPerimeter=0;" edge="1" parent="WIyWlLk6GJQsqaUBKTNV-1" source="KxtjibDI0x8qdvbCjvkH-33" target="KxtjibDI0x8qdvbCjvkH-9">
          <mxGeometry x="-1" relative="1" as="geometry">
            <mxPoint x="890" y="290" as="sourcePoint" />
            <mxPoint x="1050" y="290" as="targetPoint" />
            <Array as="points">
              <mxPoint x="890" y="240" />
              <mxPoint x="1000" y="240" />
              <mxPoint x="1000" y="62" />
            </Array>
          </mxGeometry>
        </mxCell>
        <mxCell id="KxtjibDI0x8qdvbCjvkH-46" value="1" style="edgeLabel;resizable=0;html=1;align=left;verticalAlign=bottom;" connectable="0" vertex="1" parent="KxtjibDI0x8qdvbCjvkH-45">
          <mxGeometry x="-1" relative="1" as="geometry" />
        </mxCell>
        <mxCell id="KxtjibDI0x8qdvbCjvkH-47" value="" style="endArrow=block;endFill=1;html=1;edgeStyle=orthogonalEdgeStyle;align=left;verticalAlign=top;rounded=0;exitX=0.455;exitY=-0.027;exitDx=0;exitDy=0;exitPerimeter=0;entryX=0.419;entryY=1.069;entryDx=0;entryDy=0;entryPerimeter=0;" edge="1" parent="WIyWlLk6GJQsqaUBKTNV-1" source="KxtjibDI0x8qdvbCjvkH-37" target="KxtjibDI0x8qdvbCjvkH-11">
          <mxGeometry x="-1" relative="1" as="geometry">
            <mxPoint x="1161" y="300" as="sourcePoint" />
            <mxPoint x="1321" y="300" as="targetPoint" />
            <Array as="points">
              <mxPoint x="1161" y="290" />
              <mxPoint x="1239" y="290" />
            </Array>
          </mxGeometry>
        </mxCell>
        <mxCell id="KxtjibDI0x8qdvbCjvkH-48" value="1" style="edgeLabel;resizable=0;html=1;align=left;verticalAlign=bottom;" connectable="0" vertex="1" parent="KxtjibDI0x8qdvbCjvkH-47">
          <mxGeometry x="-1" relative="1" as="geometry" />
        </mxCell>
        <mxCell id="KxtjibDI0x8qdvbCjvkH-49" value="" style="endArrow=block;endFill=1;html=1;edgeStyle=orthogonalEdgeStyle;align=left;verticalAlign=top;rounded=0;exitX=0.455;exitY=-0.015;exitDx=0;exitDy=0;exitPerimeter=0;entryX=0.992;entryY=0.021;entryDx=0;entryDy=0;entryPerimeter=0;" edge="1" parent="WIyWlLk6GJQsqaUBKTNV-1" source="KxtjibDI0x8qdvbCjvkH-41" target="KxtjibDI0x8qdvbCjvkH-9">
          <mxGeometry x="-1" relative="1" as="geometry">
            <mxPoint x="1470" y="260" as="sourcePoint" />
            <mxPoint x="1630" y="260" as="targetPoint" />
            <mxPoint as="offset" />
          </mxGeometry>
        </mxCell>
        <mxCell id="KxtjibDI0x8qdvbCjvkH-50" value="1" style="edgeLabel;resizable=0;html=1;align=left;verticalAlign=bottom;" connectable="0" vertex="1" parent="KxtjibDI0x8qdvbCjvkH-49">
          <mxGeometry x="-1" relative="1" as="geometry" />
        </mxCell>
        <mxCell id="KxtjibDI0x8qdvbCjvkH-52" value="" style="endArrow=diamondThin;endFill=1;endSize=24;html=1;rounded=0;entryX=-0.014;entryY=-0.033;entryDx=0;entryDy=0;entryPerimeter=0;" edge="1" parent="WIyWlLk6GJQsqaUBKTNV-1">
          <mxGeometry width="160" relative="1" as="geometry">
            <mxPoint x="563.08" y="280" as="sourcePoint" />
            <mxPoint x="710.0000000000001" y="114.96399999999994" as="targetPoint" />
            <Array as="points">
              <mxPoint x="563" y="120" />
            </Array>
          </mxGeometry>
        </mxCell>
        <mxCell id="KxtjibDI0x8qdvbCjvkH-54" value="" style="endArrow=diamondThin;endFill=1;endSize=24;html=1;rounded=0;exitX=-0.015;exitY=0.851;exitDx=0;exitDy=0;exitPerimeter=0;entryX=1.009;entryY=0.315;entryDx=0;entryDy=0;entryPerimeter=0;" edge="1" parent="WIyWlLk6GJQsqaUBKTNV-1" source="KxtjibDI0x8qdvbCjvkH-9" target="KxtjibDI0x8qdvbCjvkH-7">
          <mxGeometry width="160" relative="1" as="geometry">
            <mxPoint x="960" y="160" as="sourcePoint" />
            <mxPoint x="1120" y="160" as="targetPoint" />
          </mxGeometry>
        </mxCell>
      </root>
    </mxGraphModel>
  </diagram>
</mxfile>
